<svg width="72" height="70" viewBox="0 0 72 70" fill="none" xmlns="http://www.w3.org/2000/svg">
<mask id="mask0_2004_937" style="mask-type:alpha" maskUnits="userSpaceOnUse" x="0" y="0" width="72" height="70">
<rect width="71.2963" height="69.6179" fill="#8B2B2B"/>
</mask>
<g mask="url(#mask0_2004_937)">
</g>
<g clip-path="url(#clip0_2004_937)">
<path d="M44.1168 31.072C44.1342 31.3276 44.1363 31.5903 44.1774 31.8357V31.8367C44.5263 34.1549 44.8653 36.4764 45.2174 38.7898L45.5748 41.0994C45.6488 41.5794 45.6326 41.9318 45.5416 42.1931C45.455 42.4415 45.2923 42.6317 45.0133 42.78C44.6846 42.9482 44.4039 42.9736 44.1422 42.9128C43.9378 42.8654 43.7302 42.762 43.5114 42.6072L43.2887 42.4353C42.3385 41.6386 41.3537 40.8866 40.3375 40.0613L39.8483 39.6638V59.2869H40.149C43.3481 59.2869 46.5169 59.2973 49.6774 59.2947L52.8365 59.2869H52.8375C54.0906 59.2769 55.1276 58.8916 55.8522 58.1697C56.5771 57.4474 56.9567 56.4205 56.9567 55.1912V31.8298C56.9567 31.5705 56.9366 31.3111 56.9176 31.032L56.8981 30.7517H44.0953L44.1168 31.072ZM27.0905 30.7136C23.0186 30.7516 18.9853 30.7517 14.8922 30.7517H14.6158L14.5924 31.0261C14.5743 31.2387 14.5533 31.4145 14.5533 31.6023V55.4568C14.5533 55.7 14.5732 55.9636 14.6149 56.2087V56.2097L14.6168 56.2175C14.9772 58.0422 16.5479 59.2666 18.5758 59.2673V59.2683C22.6697 59.2873 26.7658 59.2683 30.8375 59.2683C31.0119 59.2683 31.2034 59.2468 31.3737 59.2283L31.6412 59.199V39.658L31.1559 40.0388C30.612 40.4663 30.0928 40.8799 29.5856 41.2859L28.0885 42.489L28.0865 42.491C27.81 42.7179 27.5503 42.8523 27.2975 42.8972C27.0818 42.9355 26.8505 42.9127 26.5905 42.7976L26.4772 42.7429C26.1778 42.5846 26.0125 42.3818 25.9264 42.1541C25.8596 41.9773 25.8348 41.7706 25.8492 41.5349L25.8766 41.2898L25.8776 41.2859C26.128 39.5709 26.4018 37.8273 26.653 36.0886C26.9052 34.4372 27.1386 32.7615 27.3903 31.0574L27.441 30.7107L27.0905 30.7136ZM35.6471 36.5642C35.0798 36.8051 34.7037 37.1435 34.4821 37.5886C34.2664 38.0218 34.2136 38.524 34.2233 39.0623V39.0632C34.2814 45.3808 34.2428 51.6779 34.2428 57.9998V59.2302H37.2672V57.9812C37.2672 51.6606 37.248 45.3619 37.2867 39.0437L37.2858 39.0427C37.2954 38.5048 37.2428 38.0034 37.0299 37.573C36.8107 37.1299 36.4394 36.795 35.8795 36.5632L35.7633 36.5144L35.6471 36.5642ZM31.2584 22.3914C30.4824 27.592 29.7256 32.7341 28.9303 38.0095L28.817 38.7644L29.4137 38.2898L30.1295 37.741L30.1324 37.738C31.6455 36.5235 33.1594 35.309 34.6725 34.0945L34.6715 34.0935C35.0995 33.7554 35.4423 33.62 35.7545 33.6199C36.067 33.6199 36.4101 33.7559 36.8385 34.0945V34.0955C37.1489 34.3422 37.4591 34.5886 37.7662 34.8347L38.6783 35.573L38.6823 35.5759C39.8017 36.4598 40.8549 37.3252 42.0963 38.3083L42.6881 38.7781L42.5797 38.03C42.1917 35.3728 41.8031 32.7583 41.4176 30.1609C41.0321 27.5633 40.6493 24.9823 40.2711 22.3923L40.233 22.1365H31.2965L31.2584 22.3914ZM10.5377 28.24H27.8571L27.8942 27.9832C28.1656 26.1431 28.438 24.3206 28.7096 22.4607L28.7594 22.1169H10.5377V28.24ZM42.8004 22.4597C43.0721 24.3585 43.3434 26.1629 43.6149 27.9841L43.653 28.24H60.7399V22.1169H42.7516L42.8004 22.4597ZM45.7467 10.2966C45.2545 10.3225 44.75 10.4896 44.2408 10.7791L44.0231 10.9099L44.0153 10.9148C43.7755 11.0771 43.4795 11.2638 43.2272 11.49L43.4078 11.6921L43.2262 11.49L43.2242 11.4929C40.931 13.601 39.4562 16.2251 38.0768 18.9812L37.8199 19.4939L38.3873 19.4119C38.8697 19.3425 39.3075 19.2918 39.7272 19.2302L40.1422 19.1638L40.1461 19.1628C42.1376 18.7875 44.1313 18.2731 45.903 17.1638L46.2535 16.9333H46.2545C47.2522 16.2501 48.1106 15.3825 48.4479 14.1296L48.4489 14.1306C48.7887 12.9377 48.4183 11.6781 47.5133 10.9138L47.3258 10.7673C46.8463 10.4261 46.3141 10.2669 45.7467 10.2966ZM26.9977 10.6365C26.0837 10.2032 25.1299 10.2505 24.3746 10.6716C23.6194 11.0928 23.0851 11.8754 22.986 12.8669L22.9723 13.0681C22.9127 14.5084 23.6247 15.589 24.6129 16.4187L24.8141 16.5808V16.5818C27.2306 18.4574 30.1361 19.014 33.1451 19.4128L33.7076 19.4871L33.4528 18.9802C32.0548 16.207 30.5789 13.5822 28.2848 11.5115H28.2858C28.0363 11.2827 27.755 11.0794 27.4694 10.9011L27.1832 10.7312L27.1793 10.7292L26.9977 10.6365ZM12.1266 31.9031L12.1237 31.8816C12.0886 31.6418 12.0885 31.3994 12.0885 30.9949V30.6951H9.57678C8.93477 30.6951 8.56001 30.5698 8.34045 30.3621C8.12498 30.158 7.99475 29.8124 7.99475 29.2107V21.1833C7.99479 20.5637 8.12922 20.1965 8.35315 19.9773C8.57878 19.7566 8.95886 19.6238 9.59631 19.6238H24.6852L24.0231 19.0906C23.6939 18.8254 23.48 18.6545 23.2672 18.4841H23.2682C21.1876 16.7818 20.0461 14.7409 20.5787 12.116C21.3249 8.50148 25.1273 6.84422 28.3698 8.60034L28.6813 8.78101C30.3776 9.83207 31.6883 11.3118 32.7994 12.9607V12.9617C33.747 14.3806 34.5904 15.8453 35.568 17.4138L35.8385 17.8484L36.0856 17.4001C36.1548 17.2744 36.224 17.144 36.2916 17.0164L36.4928 16.6404L36.4948 16.6365C37.7883 14.1999 39.2444 11.9004 41.2643 10.0173C42.3326 9.02821 43.4853 8.23605 44.899 7.96655L44.8981 7.96558C48.1267 7.37629 51.0909 9.95005 51.0729 13.2166L51.0612 13.5349V13.5359C50.9402 15.4799 49.9975 16.9737 48.5397 18.2507L48.2467 18.4988C48.0506 18.6522 47.8406 18.8208 47.4938 19.0847L46.7858 19.6238H61.526C62.283 19.6238 62.7039 19.7571 62.9459 19.9939C63.1859 20.229 63.3209 20.6363 63.3209 21.3738V29.0408C63.3209 29.7393 63.1911 30.1225 62.9635 30.3435C62.7333 30.567 62.331 30.6951 61.6031 30.6951H59.4606V31.8679C59.4606 38.6393 59.4013 45.4181 59.4645 52.196L59.4996 55.1013C59.5534 58.6495 56.8996 61.555 53.11 61.7166L52.7399 61.7234H52.7389C47.0936 61.7139 41.4434 61.7136 35.7936 61.7136L18.8492 61.7039L18.5309 61.698C15.3685 61.5795 12.9505 59.6966 12.2799 56.9314L12.2184 56.6521C12.1278 56.1532 12.1266 55.6318 12.1266 55.0779V31.9031Z" fill="black" stroke="white" stroke-width="0.6"/>
</g>
<defs>
<clipPath id="clip0_2004_937">
<rect width="55.9065" height="54.4656" fill="white" transform="translate(7.69495 7.57617)"/>
</clipPath>
</defs>
</svg>
