<svg width="72" height="70" viewBox="0 0 72 70" fill="none" xmlns="http://www.w3.org/2000/svg">
<mask id="mask0_1_739" style="mask-type:alpha" maskUnits="userSpaceOnUse" x="0" y="0" width="72" height="70">
<rect width="71.2963" height="69.6179" fill="#8B2B2B"/>
</mask>
<g mask="url(#mask0_1_739)">
</g>
<g clip-path="url(#clip0_1_739)">
<path d="M12.4961 10.6342H45.8252C47.4548 10.6342 48.7847 11.1568 49.708 12.0531C50.5731 12.8931 51.1033 14.0827 51.1738 15.5375L51.1816 15.8314V15.8324C51.1915 17.0649 51.1914 18.3024 51.1914 19.5414L51.2012 23.2552C51.2015 23.322 51.2192 23.3817 51.2334 23.4261C51.2487 23.4741 51.2707 23.5357 51.2998 23.6117L51.374 23.8041H52.4082C55.0082 23.8041 57.6114 23.8149 60.2148 23.8041L62.8184 23.7845H62.8203C63.3052 23.7756 63.6619 23.8611 63.9404 24.0336C64.2181 24.2055 64.4503 24.4839 64.6504 24.9193V24.9203C66.5009 28.9839 68.3983 33.0244 70.2471 37.0648V37.0658C70.4056 37.4227 70.5102 37.8372 70.5459 38.2338L70.5566 38.4017C70.5763 42.485 70.5762 46.5685 70.5762 50.6527C70.5762 51.331 70.4453 51.7054 70.2227 51.9232C69.9973 52.1436 69.6094 52.2722 68.9209 52.2816H67.2021L67.1279 52.472C66.3314 54.5152 65.3364 56.0171 64.126 57.0004C62.9969 57.9176 61.6629 58.3975 60.084 58.431L59.7646 58.432H59.7637C57.7296 58.4038 56.1172 57.8464 54.8721 56.849C53.6248 55.8497 52.721 54.389 52.1426 52.5121L52.0781 52.3002H25.2598L25.1855 52.4926C24.3807 54.5701 23.3382 56.079 22.0645 57.0551C20.7954 58.0275 19.2735 58.488 17.4717 58.432H17.4727C14.6458 58.3392 11.3469 56.6363 10.2432 52.4847L10.1846 52.2621H7.64941C4.79206 52.2444 2.6165 50.0745 2.61816 47.3304L2.625 47.0629C2.66382 46.3223 2.74155 45.5995 2.82031 44.8676C2.921 44.0805 3.50739 43.5992 4.17773 43.6449V43.6439C4.55348 43.6771 4.84961 43.8395 5.04785 44.0804C5.2228 44.2931 5.33315 44.5817 5.34082 44.9291L5.33789 45.0814V45.0824C5.31864 45.412 5.2846 45.738 5.25 46.0717C5.23281 46.2374 5.21582 46.4052 5.2002 46.5746L5.16016 47.0873V47.0892C5.11718 47.8792 5.34321 48.5629 5.80957 49.0502C6.27572 49.5372 6.95143 49.7963 7.74609 49.7963H10.1338L10.2002 49.5863C10.8082 47.651 11.7458 46.1569 13.0352 45.1556C14.2414 44.219 15.7794 43.6953 17.6992 43.6644H18.084C20.9766 43.7569 24.1064 45.6415 25.1348 49.5912L25.1934 49.8158H48.668V16.1185C48.6679 15.8148 48.6445 15.5069 48.5879 15.2045L48.5195 14.9037L48.5186 14.8998L48.4551 14.7006C48.2924 14.2464 48.0294 13.876 47.6729 13.6088C47.3171 13.3422 46.8841 13.1906 46.3975 13.1498L46.1855 13.139H12.8506C12.0139 13.139 11.4054 13.2061 10.9375 13.5258C10.5267 13.8066 10.2658 14.2529 10.0156 14.8705L9.90918 15.1459V15.1469C9.65969 15.818 9.07996 16.1483 8.47559 16.0472L8.35449 16.0219C8.00446 15.9256 7.75297 15.7236 7.60547 15.4613C7.45664 15.1966 7.40186 14.8485 7.4873 14.4467C7.96734 12.2069 9.9828 10.6342 12.4961 10.6342ZM17.6777 46.1879C15.0042 46.1888 12.8303 48.2262 12.6777 50.8041L12.6689 51.056V51.058C12.669 53.6884 14.7969 55.8647 17.4414 55.9984L17.6992 56.0052H17.7012C20.3942 55.9854 22.5896 53.9098 22.7051 51.2914L22.71 51.0365C22.6889 48.3397 20.4399 46.1686 17.6797 46.1879H17.6777ZM59.6221 46.1879C56.9294 46.1879 54.7134 48.262 54.5967 50.8646L54.5918 51.1185C54.6131 53.8146 56.8813 56.0052 59.6025 56.0052C62.2973 56.0051 64.4928 53.9288 64.6084 51.3109L64.6123 51.056C64.6113 48.3383 62.3808 46.188 59.6221 46.1879ZM56.4463 26.6273C56.7337 28.8861 58.166 31.2299 60.0537 33.057C61.9415 34.8842 64.3316 36.2402 66.5879 36.4711L66.793 36.4916L66.8857 36.309C66.9033 36.2745 66.9254 36.2235 66.9375 36.1644C66.948 36.113 66.9581 36.0147 66.9092 35.9115H66.9111C65.5122 32.8852 64.1119 29.8372 62.6924 26.809H62.6914C62.6372 26.6807 62.5429 26.5668 62.4473 26.4857C62.3551 26.4076 62.2034 26.3087 62.0283 26.308H62.0293C60.2734 26.2887 58.5176 26.2894 56.7441 26.2894H56.4033L56.4463 26.6273ZM67.9834 39.432L67.7607 39.3724C66.3604 38.9952 65.0334 38.7777 63.7891 38.3021H63.7881C58.4991 36.2545 55.1975 32.4939 53.8418 27.0941H53.8428L53.8398 27.0873L53.8047 26.9799C53.7634 26.8701 53.7049 26.7543 53.6348 26.6537C53.5876 26.5861 53.529 26.5159 53.459 26.4584C53.3929 26.4041 53.2986 26.347 53.1807 26.3314H53.1816L53.1699 26.3295H53.1689C52.8921 26.289 52.6108 26.2846 52.3457 26.2894C52.0625 26.2946 51.8272 26.308 51.5801 26.308H51.2803V49.7523L51.4873 49.8197C51.5366 49.8358 51.6424 49.8734 51.7578 49.8734H51.9521L52.0312 49.6957C52.2086 49.3005 52.3717 48.871 52.5312 48.4945C52.6549 48.2028 52.7837 47.9243 52.9336 47.6625L53.0918 47.4056L53.0957 47.3998C53.5552 46.6693 54.1268 45.9811 54.7686 45.4457L54.7676 45.4447C55.3639 44.959 56.049 44.5586 56.7695 44.267L57.0811 44.1488L57.0859 44.1469C57.7779 43.889 58.5594 43.7431 59.3135 43.723L59.6348 43.722H59.6416C60.4901 43.722 61.3809 43.8881 62.1973 44.1849V44.1859C62.9002 44.4479 63.5969 44.807 64.1865 45.2611L64.4316 45.4623L64.4355 45.4642C65.0152 45.9503 65.5408 46.5536 65.9844 47.1996L66.1689 47.4789L66.1709 47.4808C66.3827 47.8052 66.5518 48.1666 66.7148 48.5521C66.8739 48.9283 67.0345 49.3466 67.2139 49.7367L67.3252 49.9799L67.5791 49.8969C67.6402 49.8769 67.7166 49.8524 67.8154 49.8041L67.9834 49.722V45.8588L67.7012 45.8412C67.0803 45.8032 66.7472 45.7004 66.5576 45.5424C66.4057 45.4155 66.3043 45.2161 66.2627 44.847L66.248 44.6771V44.6742L66.2314 44.3656C66.2045 43.693 66.267 43.3469 66.4258 43.1283C66.6031 42.8843 66.9558 42.7248 67.7637 42.559L68.0078 42.5092L68.0029 42.2592C67.9833 41.3567 67.9834 40.4919 67.9834 39.6625V39.432Z" fill="black" stroke="white" stroke-width="0.6"/>
<path d="M35.7827 19.113L42.5327 19.1375H42.5337C43.1845 19.1375 43.5876 19.2932 43.8169 19.5388C44.0149 19.751 44.1305 20.0815 44.1069 20.5828L44.0884 20.8083C43.8519 22.8615 43.6057 24.9145 43.3569 26.9675L42.6099 33.1287V33.1306C42.5404 33.7413 42.2688 34.2262 41.7427 34.6208C40.7176 35.373 39.7024 36.1298 38.6899 36.8914L35.6509 39.1921L35.6479 39.1941C35.1321 39.5942 34.6068 39.7661 33.9419 39.7664C31.7511 39.7086 29.5985 39.7283 27.436 39.7283H20.7153C19.9956 39.7283 19.5681 39.5536 19.3325 39.282C19.1262 39.0439 19.0168 38.6738 19.0552 38.1199L19.0806 37.8699L19.0815 37.8679C19.328 35.9103 19.5686 33.9525 19.8052 31.9949L20.5005 26.1218V26.1189C20.5909 25.2523 20.9258 24.618 21.6401 24.0935C22.6681 23.3489 23.6813 22.5803 24.6909 21.8142C25.4487 21.2392 26.2047 20.6654 26.9663 20.1023L27.73 19.5437L27.7319 19.5417C28.0315 19.3221 28.4741 19.1622 28.8677 19.1257L29.0327 19.1179H29.0337C31.2799 19.1083 33.5313 19.1082 35.7827 19.113ZM22.979 27.0349C22.5849 30.3125 22.1906 33.5716 21.7964 36.8689L21.7563 37.2048H33.3589L33.3901 36.9402C33.7843 33.6627 34.1786 30.4034 34.5728 27.1062L34.6128 26.7712H23.0112L22.979 27.0349ZM40.6382 23.6306L37.5425 25.9646L37.5347 25.9705C37.3829 26.0942 37.2574 26.2935 37.2075 26.4841L37.1909 26.5652L37.1899 26.571C36.8549 29.2899 36.5395 32.0315 36.1851 34.9792L36.1001 35.6824L36.6646 35.2537C37.8003 34.3916 38.8143 33.6517 39.7808 32.8992L39.5972 32.6628L39.7817 32.8992L39.7896 32.8923C39.9186 32.7841 39.9905 32.6337 40.0337 32.5154C40.0789 32.3916 40.1075 32.2615 40.1274 32.1638L40.1294 32.1541L40.1304 32.1433C40.2291 31.4095 40.3233 30.671 40.4146 29.9304L40.6831 27.7039V27.7029C40.8211 26.4881 40.9591 25.2728 41.1167 23.9041L41.1968 23.2087L40.6382 23.6306ZM29.5054 21.5457C29.2692 21.5457 29.0639 21.673 28.9478 21.7488L28.9399 21.7537L28.9321 21.7595C28.1031 22.3775 27.3134 22.9761 26.4263 23.6511L25.939 24.0212L26.5308 24.1794C26.6332 24.2068 26.71 24.2279 26.7632 24.241C26.8195 24.2547 26.8771 24.2663 26.9429 24.2664H35.1226C35.1886 24.2664 35.2862 24.267 35.3843 24.2546C35.4809 24.2424 35.6065 24.2145 35.7202 24.1404L35.7271 24.1365L35.7329 24.1316C36.1577 23.8224 36.5828 23.5082 37.0063 23.1951C37.4301 22.8817 37.8533 22.5691 38.2759 22.2615L38.4546 22.1316L38.3833 21.9226C38.3645 21.8675 38.3334 21.7724 38.2681 21.6765L38.1782 21.5457H29.5054Z" fill="black" stroke="white" stroke-width="0.6"/>
<path d="M17.6187 18.3085H17.6206C18.3868 18.3085 18.8941 18.7828 18.9673 19.3954L18.9761 19.5194C18.9906 20.1604 18.5353 20.7048 17.772 20.7841L17.6147 20.7938C15.7649 20.813 13.9386 20.7938 12.0825 20.7938C10.3041 20.7938 8.55561 20.8131 6.78369 20.7938H6.78467C6.2054 20.7854 5.7715 20.5458 5.53369 20.2235C5.30004 19.9068 5.23601 19.4855 5.43506 19.0448C5.56073 18.7825 5.72504 18.6028 5.91748 18.4872C6.0626 18.4001 6.23374 18.3433 6.43311 18.3202L6.64209 18.3085H6.64404C8.47643 18.2988 10.3039 18.2938 12.1313 18.2938L17.6187 18.3085Z" fill="black" stroke="white" stroke-width="0.6"/>
<path d="M11.4299 27.4095H11.4319C11.9156 27.4096 12.2845 27.5512 12.5305 27.765C12.7436 27.9503 12.8801 28.2027 12.9163 28.5062L12.925 28.639C12.9331 29.0152 12.7922 29.3202 12.5432 29.5375C12.2898 29.7585 11.9044 29.9046 11.4075 29.9135C9.92993 29.8943 8.45272 29.8949 6.97778 29.8949C5.41635 29.8949 3.88624 29.9141 2.33228 29.8949H2.33325C1.65288 29.8783 1.1886 29.5203 1.0354 29.0258C0.882939 28.533 1.05541 27.9858 1.43872 27.7308L1.5188 27.684L1.52954 27.6781L1.54028 27.6713C1.78422 27.5169 2.08726 27.4322 2.37915 27.4135L2.50317 27.4095H2.50513C3.99242 27.3999 5.47975 27.3949 6.96704 27.3949L11.4299 27.4095Z" fill="black" stroke="white" stroke-width="0.6"/>
<path d="M9.49414 36.7797V36.7806C9.94808 36.7892 10.2989 36.9289 10.5342 37.14C10.7379 37.3228 10.8708 37.5722 10.9062 37.8763L10.915 38.0101C10.9231 38.3804 10.7882 38.6813 10.5527 38.8949C10.3436 39.0845 10.0385 39.2197 9.64746 39.2562L9.47461 39.266H9.47266C8.68881 39.2851 7.95377 39.266 7.1748 39.266C6.61965 39.266 6.06735 39.2765 5.52051 39.2738L4.97461 39.266H4.97266C4.48537 39.2573 4.12745 39.1155 3.89551 38.9037C3.66688 38.6948 3.53231 38.3929 3.53223 38.0043C3.53223 37.6409 3.66713 37.3466 3.89648 37.139C4.12863 36.929 4.4786 36.7893 4.93262 36.7806L4.93164 36.7797C6.4459 36.7604 7.97987 36.7604 9.49414 36.7797Z" fill="black" stroke="white" stroke-width="0.6"/>
<path d="M17.6994 49.5538C18.5469 49.5538 19.2367 50.2287 19.2564 51.0578C19.2761 51.9063 18.5469 52.6197 17.6797 52.6004C16.8321 52.6004 16.1423 51.9255 16.1226 51.0964C16.1029 50.248 16.8124 49.5346 17.6994 49.5538Z" fill="black"/>
<path d="M58.0649 51.0385C58.0846 50.1708 58.7941 49.5152 59.6811 49.5537C60.5286 49.573 61.2184 50.2865 61.1987 51.0963C61.179 51.9447 60.4301 52.6196 59.5628 52.6003C58.6956 52.5617 58.0452 51.8869 58.0649 51.0385Z" fill="black"/>
</g>
<defs>
<clipPath id="clip0_1_739">
<rect width="71.1689" height="49.0314" fill="white" transform="translate(0.0637207 10.2932)"/>
</clipPath>
</defs>
</svg>
