<svg width="72" height="70" viewBox="0 0 72 70" fill="none" xmlns="http://www.w3.org/2000/svg">
<mask id="mask0_2004_976" style="mask-type:alpha" maskUnits="userSpaceOnUse" x="0" y="0" width="72" height="70">
<rect width="71.2963" height="69.6179" fill="#8B2B2B"/>
</mask>
<g mask="url(#mask0_2004_976)">
</g>
<g clip-path="url(#clip0_2004_976)">
<path d="M21.8784 20.2124C24.8719 20.2311 27.8488 20.0249 30.7417 20.353L31.3188 20.4263H31.3198C37.0411 21.2073 41.2414 25.9709 41.6235 31.6001L41.6479 32.1479C41.668 33.168 41.648 34.2006 41.6479 35.311V35.5933L41.9302 35.6108C42.2438 35.63 42.5168 35.6497 42.7886 35.6499V35.6509C43.9397 35.671 45.0551 35.6302 46.1782 35.689V35.6899C48.7654 35.8346 50.7244 37.7226 50.896 40.1782L50.9067 40.4175C50.952 42.5261 50.9635 44.6461 50.9409 46.7603L50.9067 48.8716V48.8726C50.8516 51.4713 48.8294 53.4744 46.1851 53.6479L45.9272 53.6587C44.6221 53.6783 43.3226 53.6587 41.9683 53.6587H41.7075L41.6714 53.9175C41.5643 54.6811 41.4815 55.4037 41.3716 56.1206L41.2505 56.8374C40.797 59.2484 39.8211 61.1412 38.3511 62.5249C36.972 63.8228 35.1391 64.6909 32.8472 65.105L32.3833 65.1812C32.0535 65.2273 31.7494 65.2813 31.4478 65.313L31.146 65.3364H31.1431C30.6158 65.3662 30.1005 65.4168 29.6118 65.5923C29.1769 65.7485 28.7726 66 28.3931 66.4038L28.2329 66.5845C27.0798 67.9518 24.8622 67.892 23.5142 66.6021L23.3872 66.4741L23.3853 66.4722L23.2651 66.3394C22.0695 64.9475 22.2507 62.8455 23.7017 61.6538L23.7007 61.6528C25.1892 60.4336 27.4093 60.6263 28.5669 62.1362C28.7962 62.4353 29.037 62.6525 29.3315 62.771C29.5532 62.8601 29.7842 62.8855 30.0298 62.8696L30.2808 62.8403L30.2876 62.8394C31.2904 62.6565 32.3817 62.5506 33.4194 62.2993L33.8599 62.1821C35.9129 61.5834 37.3239 60.2711 38.1147 58.3843L38.2651 57.9985C38.5907 57.0944 38.8452 55.5662 38.9741 54.063C39.1028 52.5622 39.1111 51.0287 38.9204 50.1167L38.7378 49.2427L38.356 50.0493C37.1018 52.6979 35.5138 54.8739 33.4839 56.3843C31.5847 57.7973 29.2841 58.6392 26.4751 58.731L25.9067 58.7388H25.9058C22.8363 58.7387 20.3582 57.8861 18.3218 56.395C16.2809 54.9006 14.6667 52.7533 13.3521 50.1421L12.7847 50.2769V53.6235C12.6834 53.6323 12.6035 53.6392 12.521 53.6392C10.9027 53.6392 9.27788 53.6507 7.65869 53.6479L6.04248 53.6392H6.0415C3.1684 53.621 1.05868 51.6657 0.89502 48.9614L0.885254 48.6978C0.86515 46.0025 0.865152 43.2876 0.885254 40.5923C0.923324 37.7691 2.93919 35.7636 5.8667 35.6499L5.86768 35.6509C7.17067 35.6117 8.44272 35.6509 9.84424 35.6509H10.144V32.3413C10.2011 26.7763 13.9236 22.0545 19.3979 20.5923L19.9331 20.4614L19.937 20.4604C20.5098 20.3246 21.0823 20.2225 21.6353 20.2114L21.8716 20.2124H21.8784ZM30.5845 31.4214C27.8712 30.5558 25.1034 30.4674 22.353 31.104L21.8032 31.2407C19.8393 31.7638 18.2071 32.6535 16.9868 33.9214C15.8415 35.1114 15.0718 36.6217 14.7241 38.4409L14.6597 38.8091V38.8101C13.904 43.6861 14.865 48.3169 17.896 52.3647V52.3657C19.8298 54.9694 22.5798 56.228 25.8657 56.228C29.8581 56.228 32.7927 54.4117 34.7554 51.1948L34.9419 50.8794C36.879 47.5208 37.666 43.8778 37.3354 40.0894L37.2544 39.3306V39.3296L37.2026 38.9673C36.9193 37.1736 36.2528 35.6268 35.2017 34.3706C34.0802 33.0306 32.5336 32.0365 30.5854 31.4214H30.5845ZM42.0288 38.2017H41.729V51.0884H42.0288C43.3986 51.0884 44.7504 51.1471 46.0894 51.0679L46.0903 51.0688C47.3646 51.002 48.3049 50.0746 48.3071 48.8042C48.3374 46.7198 48.3447 44.6352 48.3296 42.5591L48.3071 40.4858L48.3062 40.4839L48.2915 40.2593C48.1644 39.1494 47.2645 38.2857 46.1509 38.2407H46.1519C44.7718 38.1613 43.406 38.2017 42.0288 38.2017ZM22.6431 22.6841C17.927 22.7233 13.9544 25.8668 13.0112 30.355L12.9292 30.7905C12.8335 31.3522 12.8294 31.9279 12.8472 32.4995C12.8653 33.0824 12.9048 33.6419 12.9048 34.228V35.2593L13.4585 34.3892C16.3673 29.8131 20.7233 28.1677 25.9253 28.1675C31.1278 28.187 35.488 29.8525 38.4575 34.3159L39.0073 35.1421V34.1489C39.0073 33.6114 39.019 33.0696 39.0161 32.5229L39.0073 31.9751V31.9702L38.9741 31.4858C38.5274 26.6774 34.6338 22.9881 29.7065 22.7017L29.2104 22.6841H29.2095C28.1117 22.6742 27.019 22.6694 25.9263 22.6694L22.6431 22.6841ZM10.1235 38.2017H9.82373C8.5836 38.2017 7.38365 38.1713 6.19385 38.2036L5.68408 38.2212C4.47641 38.2677 3.52696 39.2664 3.52588 40.4683C3.51077 42.5518 3.50661 44.6353 3.51416 46.7104L3.52588 48.7827C3.52715 49.8896 4.32111 50.9367 5.43604 51.0083V51.0093C6.89804 51.1086 8.37684 51.0298 9.82373 51.0298H10.1235V38.2017Z" fill="black" stroke="white" stroke-width="0.6"/>
<path d="M44.6067 2.03625C48.1885 2.01657 51.7482 2.03723 55.3333 2.03723H65.7395C67.1549 2.03723 68.3093 2.48365 69.1125 3.2511C69.8648 3.96995 70.3315 4.99166 70.4026 6.25208L70.4114 6.50696C70.4516 10.2456 70.4516 13.9646 70.4114 17.7032C70.3921 19.0706 69.9151 20.1762 69.1106 20.9406C68.305 21.7058 67.1458 22.1524 65.72 22.1525H51.3079C51.0204 22.1525 50.7565 22.1904 50.51 22.2941C50.3236 22.3726 50.1569 22.4842 50.0032 22.63L49.8538 22.7872C49.3432 23.3749 48.8214 23.9521 48.2883 24.5177L47.7512 25.0792L47.7493 25.0812C46.5198 26.3711 44.9592 26.8181 43.3733 26.3683L43.0559 26.2657C41.463 25.6943 40.341 24.2822 40.1917 22.6261L40.175 22.2921C40.16 18.2903 40.1451 14.3006 40.1555 10.3058L40.175 6.30774C40.194 3.90241 42.1045 2.05578 44.6077 2.03723L44.6067 2.03625ZM44.7864 4.58801C44.2248 4.58801 43.7475 4.72801 43.3948 5.03918C43.0417 5.35072 42.8531 5.79838 42.7971 6.33118C42.7748 6.52762 42.7756 6.7017 42.7756 6.87708V21.6847C42.7756 21.7818 42.7749 21.8834 42.7776 21.9874L42.7971 22.3058L42.7981 22.3136C42.8424 22.6604 42.9449 22.9941 43.1467 23.2736C43.3515 23.5571 43.6451 23.765 44.0344 23.881V23.882C44.4157 23.9985 44.7614 23.9841 45.0774 23.8624C45.3086 23.7733 45.5118 23.6311 45.6946 23.463L45.8713 23.2872L45.8733 23.2853C46.7498 22.3304 47.6877 21.3719 48.5383 20.3615L48.5374 20.3605C48.9967 19.8259 49.5339 19.6018 50.2805 19.6017C55.4136 19.6214 60.5466 19.6222 65.679 19.6222C66.3312 19.6222 66.8742 19.4758 67.2522 19.1154C67.6331 18.7521 67.7912 18.225 67.7913 17.589V6.62122C67.7913 5.97939 67.6404 5.44974 67.26 5.08704C66.8827 4.72732 66.3375 4.58801 65.679 4.58801H44.7864Z" fill="black" stroke="white" stroke-width="0.6"/>
<path d="M47.2266 9.04712C48.3734 9.03001 49.395 10.0227 49.3779 11.1448C49.3606 12.2478 48.3998 13.1534 47.2422 13.1536C46.0732 13.1536 45.1465 12.2383 45.1465 11.1106C45.1465 10.051 45.946 9.1799 47.0098 9.06079L47.2266 9.04712Z" fill="black" stroke="white" stroke-width="0.6"/>
<path d="M63.2882 9.04712C64.3763 9.03099 65.2954 9.87956 65.3917 10.9319L65.3995 11.1458C65.3818 12.2729 64.4772 13.1534 63.2843 13.1536C62.1354 13.1536 61.1886 12.2186 61.1886 11.1106C61.1886 10.0724 62.0209 9.18305 63.0753 9.06177L63.2882 9.04712Z" fill="black" stroke="white" stroke-width="0.6"/>
<path d="M55.3693 9.1062C56.4671 9.12247 57.3317 9.92845 57.421 10.9568L57.4288 11.1648C57.4113 12.2971 56.5012 13.1931 55.3331 13.1931C54.1838 13.1929 53.238 12.277 53.2179 11.1697C53.2179 10.0962 54.0646 9.20658 55.1495 9.11401L55.3693 9.1062Z" fill="black" stroke="white" stroke-width="0.6"/>
</g>
<defs>
<clipPath id="clip0_2004_976">
<rect width="70.1665" height="66.1431" fill="white" transform="translate(0.564941 1.73743)"/>
</clipPath>
</defs>
</svg>
